<svg xmlns="http://www.w3.org/2000/svg" viewBox="0 0 512 512" role="img" aria-label="Summon icon">
  <defs>
    <linearGradient id="bg" x1="0%" y1="0%" x2="100%" y2="100%">
      <stop offset="0%" stop-color="#06B6D4" />
      <stop offset="100%" stop-color="#22d3ee" />
    </linearGradient>

    <filter id="glow" x="-50%" y="-50%" width="200%" height="200%">
      <feDropShadow dx="0" dy="8" stdDeviation="12" flood-color="#000000" flood-opacity="0.5"/>
      <feDropShadow dx="0" dy="0" stdDeviation="15" flood-color="#FFFFFF" flood-opacity="0.4"/>
    </filter>
  </defs>

  <rect width="512" height="512" rx="112" fill="url(#bg)"/>

  <!-- glow/pulse layer: position is a real attribute (renders without CSS); opacity breathes via SMIL -->
  <g transform="translate(52, 52) scale(17)" filter="url(#glow)" fill="none" stroke="#FFFFFF" stroke-width="1.5" stroke-linecap="round" stroke-linejoin="round" opacity="0.55">
    <animate attributeName="opacity" values="0.28;0.95;0.28" dur="3s" repeatCount="indefinite"/>
      <path d="m16 11 2 2 4-4" />
      <path d="M16 21v-2a4 4 0 0 0-4-4H6a4 4 0 0 0-4 4v2" />
      <circle cx="9" cy="7" r="4" />
  </g>

  <!-- main layer: base position via attribute; gentle float via additive SMIL -->
  <g transform="translate(52, 52)" fill="none" stroke="#FFFFFF" stroke-width="1.5" stroke-linecap="round" stroke-linejoin="round">
    <animateTransform attributeName="transform" type="translate" additive="sum"
      values="0 0; 0 -16; 0 0" keyTimes="0;0.5;1"
      dur="4s" repeatCount="indefinite" calcMode="spline" keySplines="0.45 0 0.55 1;0.45 0 0.55 1"/>
    <g transform="scale(17)">
      <path d="m16 11 2 2 4-4" />
      <path d="M16 21v-2a4 4 0 0 0-4-4H6a4 4 0 0 0-4 4v2" />
      <circle cx="9" cy="7" r="4" />
    </g>
  </g>
</svg>
